<svg width="16" height="16" viewBox="0 0 16 16" fill="none" xmlns="http://www.w3.org/2000/svg">
<g clip-path="url(#clip0_194_1636)">
<rect width="16" height="16" rx="8" fill="#DBDBDC"/>
<rect width="16" height="16" fill="#3145FF"/>
<path d="M7.14034 13.0909C7.14034 12.6938 7.14034 12.2991 7.14034 11.9065C7.14034 11.5184 7.14034 11.0947 7.14034 10.6352L7.1468 10.4679V5.9782C7.1468 5.36262 7.24808 4.88532 7.45064 4.5463C7.6532 4.20728 7.92041 3.97086 8.25226 3.83704C8.58842 3.70322 8.95044 3.63631 9.33832 3.63631C9.97616 3.63631 10.5192 3.77682 10.9674 4.05785C11.4199 4.33442 11.7647 4.72473 12.0018 5.22879C12.2431 5.73286 12.3638 6.32391 12.3638 7.00194C12.3638 7.65767 12.2366 8.25987 11.9824 8.80854C11.7281 9.35721 11.3337 9.79883 10.7993 10.1334C10.2692 10.4679 9.58613 10.6352 8.75004 10.6352H7.1662C6.37751 10.6352 5.72243 10.4791 5.20095 10.1668C4.67946 9.85012 4.28728 9.41743 4.02438 8.86876C3.76579 8.31563 3.6365 7.6822 3.6365 6.96848C3.6365 6.70084 3.65159 6.42873 3.68175 6.15217C3.71623 5.87114 3.76579 5.59234 3.83044 5.31578C3.8994 5.03921 3.98775 4.76934 4.09549 4.50615C4.20324 4.24297 4.33037 3.99094 4.47691 3.75006L6.15125 3.80359C5.95731 4.10692 5.79354 4.44147 5.65994 4.80725C5.53064 5.17303 5.43152 5.54328 5.36256 5.91798C5.29792 6.28822 5.26559 6.63393 5.26559 6.9551C5.26559 7.42348 5.32808 7.83164 5.45307 8.17957C5.58236 8.52305 5.78492 8.78847 6.06074 8.97582C6.33657 9.15871 6.69859 9.25015 7.1468 9.25015H8.76943C9.24782 9.25015 9.62707 9.15425 9.90721 8.96244C10.1917 8.76616 10.3964 8.49852 10.5213 8.1595C10.6463 7.82049 10.7088 7.43909 10.7088 7.01532C10.7088 6.58709 10.6614 6.22354 10.5666 5.92467C10.4718 5.6258 10.3339 5.3983 10.1529 5.24218C9.97186 5.08159 9.75206 5.0013 9.49347 5.0013C9.2392 5.0013 9.05388 5.0972 8.93751 5.28901C8.82546 5.47637 8.76943 5.78639 8.76943 6.21908V10.4679L8.7759 10.6352C8.7759 11.0634 8.7759 11.4694 8.7759 11.853C8.7759 12.2366 8.7759 12.6336 8.7759 13.044L7.14034 13.0909Z" fill="white"/>
</g>
<defs>
<clipPath id="clip0_194_1636">
<rect width="16" height="16" rx="8" fill="white"/>
</clipPath>
</defs>
</svg>
